<?xml version="1.0" encoding="UTF-8"?>
<svg id="Layer_1" data-name="Layer 1" xmlns="http://www.w3.org/2000/svg" viewBox="0 0 1782 1480">
  <defs>
    <style>
      .cls-1 {
        fill: #fff;
        stroke-width: 0px;
      }
    </style>
  </defs>
  <path class="cls-1" d="M890.14,923.88c-20.18,22.26-35.69,40.83-52.71,57.91-130.16,130.57-260.7,260.76-390.92,391.27-39.69,39.78-87.04,52.17-138.95,33.26-51.26-18.68-82.21-57.9-89.58-112.71-6.25-46.52,13.63-83.46,45.95-115.67,137.31-136.82,274.17-274.11,411.38-411.03,8.16-8.14,18.01-14.58,33.71-35.9-10.4-5.39-22.94-8.61-30.87-16.49-139.73-138.87-278.93-278.27-418.16-417.64-39.04-39.08-54.54-85.49-35.76-138.47,18.75-52.91,57.67-85,113.91-92.22,46.5-5.97,83.32,14.49,115.45,46.73,137.56,138.06,275.51,275.73,413.35,413.51,7.35,7.34,15.02,14.35,24.02,22.92,9.21-8.63,17.67-16.13,25.66-24.12,138.6-138.52,276.84-277.39,415.81-415.53,63.53-63.15,151.34-58.67,204.03,8.88,42.99,55.1,38.58,124.58-13.49,177.34-91.01,92.23-182.97,183.54-274.69,275.08-55.16,55.05-110.6,109.81-168.38,167.14,9.01,9.5,16.49,17.77,24.36,25.65,138.49,138.62,277.36,276.87,415.42,415.92,58.94,59.37,61.07,134.87,7.52,191.54-54.6,57.78-134.18,58.38-192.99-.08-124.02-123.28-247.46-247.15-370.94-370.96-23.03-23.09-45.16-47.07-73.15-76.32Z"/>
</svg>