<?xml version="1.0" encoding="UTF-8"?>
<svg id="Layer_1" data-name="Layer 1" xmlns="http://www.w3.org/2000/svg" viewBox="0 0 1782 1480">
  <defs>
    <style>
      .cls-1 {
        fill: #fff;
        stroke-width: 0px;
      }
    </style>
  </defs>
  <path class="cls-1" d="M1224.81,804.23c18.71-70.91,22.89-143.95,12.42-217.09-10.47-73.14-34.97-142.08-72.81-204.89-36.54-60.64-83.91-113.01-140.78-155.64-56.88-42.64-120.42-73.41-188.88-91.48-70.91-18.71-143.95-22.89-217.09-12.42-73.14,10.47-142.08,34.97-204.89,72.81-60.64,36.54-113.01,83.91-155.64,140.78-42.64,56.88-73.41,120.42-91.48,188.88-18.71,70.91-22.89,143.95-12.42,217.09,10.47,73.14,34.97,142.08,72.81,204.89,36.54,60.64,83.91,113.01,140.78,155.64,56.88,42.64,120.42,73.41,188.88,91.48,70.91,18.71,143.95,22.89,217.09,12.42,73.14-10.47,142.08-34.97,204.89-72.81,32.1-19.34,61.86-41.75,89.11-66.97l408.87,306.5c43.73,32.78,105.77,23.91,138.55-19.83,16.39-21.87,22.37-48.31,18.78-73.38-3.59-25.07-16.74-48.78-38.61-65.17l-408.87-306.5c16.56-33.23,29.72-68.07,39.29-104.32ZM445.86,997.38c-88.86-66.61-146.46-163.84-162.2-273.77-15.73-109.94,12.29-219.42,78.9-308.28,66.61-88.86,163.84-146.46,273.78-162.2,109.94-15.73,219.42,12.29,308.28,78.9,88.86,66.61,146.46,163.84,162.2,273.77,15.73,109.94-12.29,219.42-78.9,308.28-66.61,88.86-163.84,146.46-273.77,162.2-109.94,15.73-219.42-12.29-308.28-78.9Z"/>
</svg>