<?xml version="1.0" encoding="UTF-8"?>
<svg id="Layer_1" data-name="Layer 1" xmlns="http://www.w3.org/2000/svg" viewBox="0 0 382 377">
  <defs>
    <style>
      .cls-1 {
        fill: #c1c1c1;
        stroke-width: 0px;
      }
    </style>
  </defs>
  <path class="cls-1" d="M191,373.67c-102.1,0-185.16-83.07-185.16-185.17S88.9,3.33,191,3.33s185.17,83.07,185.17,185.17-83.06,185.17-185.17,185.17ZM191,9.5C92.3,9.5,12,89.8,12,188.5s80.3,179,179,179,179-80.3,179-179S289.7,9.5,191,9.5Z"/>
  <polygon class="cls-1" points="167.37 7.99 178.44 75.48 203.56 75.48 216.11 9.38 167.37 7.99"/>
  <polygon class="cls-1" points="46.65 77.56 102.2 117.46 119.96 99.7 82.1 44.08 46.65 77.56"/>
  <polygon class="cls-1" points="10.49 212.12 77.98 201.06 77.98 175.94 11.88 163.38 10.49 212.12"/>
  <polygon class="cls-1" points="80.06 332.85 119.96 277.29 102.2 259.54 46.58 297.4 80.06 332.85"/>
  <polygon class="cls-1" points="214.62 369.01 203.56 301.52 178.44 301.52 165.88 367.62 214.62 369.01"/>
  <polygon class="cls-1" points="335.35 299.44 279.79 259.54 262.04 277.29 299.9 332.92 335.35 299.44"/>
  <polygon class="cls-1" points="371.51 164.87 304.02 175.94 304.02 201.06 370.12 213.61 371.51 164.87"/>
  <polygon class="cls-1" points="301.94 44.15 262.04 99.7 279.79 117.46 335.42 79.6 301.94 44.15"/>
</svg>