<?xml version="1.0" encoding="UTF-8"?>
<svg id="Layer_1" data-name="Layer 1" xmlns="http://www.w3.org/2000/svg" viewBox="0 0 2338 330">
  <defs>
    <style>
      .cls-1 {
        fill: #fff;
      }

      .cls-1, .cls-2 {
        stroke-width: 0px;
      }

      .cls-2 {
        fill: #1c1c1c;
      }
    </style>
  </defs>
  <g>
    <path class="cls-1" d="M761.93,135.49c-.31.58-.75.87-1.33.87-.45,0-1.02-.32-1.72-.95-.7-.63-1.66-1.33-2.86-2.1-1.2-.77-2.7-1.48-4.5-2.13-1.8-.65-4.02-.97-6.66-.97s-4.96.38-6.97,1.13c-2,.75-3.69,1.78-5.04,3.08-1.35,1.3-2.38,2.8-3.09,4.51-.7,1.71-1.05,3.5-1.05,5.38,0,2.46.52,4.5,1.57,6.1,1.05,1.61,2.42,2.97,4.14,4.1,1.71,1.13,3.66,2.08,5.83,2.85,2.17.77,4.41,1.53,6.7,2.28,2.29.75,4.53,1.58,6.7,2.49,2.18.91,4.12,2.04,5.83,3.41,1.71,1.37,3.09,3.05,4.13,5.05s1.57,4.49,1.57,7.46-.52,5.91-1.57,8.59-2.56,5.02-4.54,7-4.41,3.55-7.28,4.69c-2.87,1.15-6.15,1.72-9.85,1.72-4.79,0-8.91-.85-12.36-2.54-3.45-1.69-6.48-4.01-9.08-6.95l1.44-2.26c.41-.51.89-.77,1.44-.77.31,0,.7.2,1.18.62.48.41,1.06.91,1.75,1.51.68.6,1.51,1.25,2.46,1.95.96.7,2.07,1.35,3.34,1.95,1.27.6,2.72,1.1,4.36,1.51s3.51.62,5.6.62c2.88,0,5.44-.44,7.7-1.31,2.26-.87,4.17-2.06,5.73-3.56,1.56-1.5,2.75-3.29,3.57-5.36.82-2.07,1.23-4.28,1.23-6.64,0-2.56-.52-4.67-1.57-6.33-1.04-1.66-2.42-3.04-4.13-4.15-1.71-1.11-3.65-2.04-5.83-2.8-2.17-.75-4.41-1.49-6.7-2.21-2.29-.72-4.53-1.52-6.7-2.41-2.17-.89-4.12-2.03-5.83-3.41-1.71-1.38-3.09-3.11-4.14-5.18-1.04-2.07-1.57-4.66-1.57-7.77,0-2.43.46-4.77,1.39-7.03s2.28-4.25,4.06-5.97c1.78-1.73,3.98-3.11,6.6-4.15,2.62-1.04,5.61-1.56,8.96-1.56,3.76,0,7.14.6,10.14,1.8,3,1.2,5.72,3.03,8.19,5.49l-1.23,2.36Z"/>
    <path class="cls-1" d="M926.45,126.67v4.36h-38.21v29.33h31.8v4.26h-31.8v30.26h38.21v4.36h-43.49v-72.57h43.49Z"/>
    <path class="cls-1" d="M1100.76,199.24h-4.05c-.48,0-.87-.13-1.18-.38-.31-.26-.55-.59-.72-1l-8.56-21.08h-35.64l-8.51,21.08c-.14.38-.38.7-.72.97-.34.27-.75.41-1.23.41h-4l29.69-72.57h5.23l29.69,72.57ZM1052.19,172.88h32.51l-14.82-36.67c-.24-.58-.48-1.24-.72-1.97-.24-.73-.48-1.51-.72-2.33-.24.82-.48,1.6-.72,2.33-.24.74-.48,1.41-.72,2.03l-14.82,36.62Z"/>
    <path class="cls-1" d="M1221.58,166.42v32.82h-5.23v-72.57h18.51c8.38,0,14.63,1.62,18.77,4.85,4.14,3.23,6.2,7.97,6.2,14.23,0,2.77-.48,5.3-1.43,7.59-.96,2.29-2.33,4.3-4.13,6.03-1.8,1.73-3.96,3.15-6.49,4.26-2.53,1.11-5.38,1.84-8.57,2.18.82.51,1.56,1.2,2.21,2.05l24.98,31.38h-4.57c-.55,0-1.02-.1-1.41-.31-.39-.21-.78-.55-1.15-1.03l-23.23-29.44c-.58-.75-1.21-1.28-1.87-1.59-.67-.31-1.7-.46-3.1-.46h-9.49ZM1221.58,162.52h12.62c3.21,0,6.09-.38,8.64-1.15,2.55-.77,4.7-1.87,6.46-3.31,1.76-1.44,3.1-3.16,4.03-5.18.92-2.02,1.38-4.29,1.38-6.82,0-5.16-1.69-8.99-5.08-11.49-3.39-2.5-8.31-3.74-14.77-3.74h-13.28v31.69Z"/>
    <path class="cls-1" d="M1432.61,187.03c.34,0,.63.12.87.36l2.05,2.21c-1.51,1.61-3.15,3.05-4.92,4.33-1.78,1.28-3.72,2.38-5.82,3.28-2.1.91-4.41,1.61-6.92,2.1-2.51.5-5.27.74-8.28.74-5.03,0-9.63-.88-13.82-2.64-4.19-1.76-7.78-4.26-10.77-7.49-2.99-3.23-5.33-7.14-7-11.72-1.68-4.58-2.51-9.68-2.51-15.28s.86-10.53,2.59-15.08c1.73-4.55,4.15-8.45,7.28-11.72,3.13-3.26,6.87-5.8,11.23-7.59,4.36-1.8,9.17-2.69,14.44-2.69,2.63,0,5.04.2,7.23.59,2.19.39,4.23.96,6.13,1.69,1.9.74,3.68,1.65,5.36,2.74,1.67,1.1,3.32,2.36,4.92,3.8l-1.59,2.31c-.27.41-.7.62-1.28.62-.31,0-.7-.18-1.18-.54-.48-.36-1.09-.8-1.82-1.33-.74-.53-1.62-1.11-2.67-1.74-1.04-.63-2.28-1.21-3.72-1.74-1.44-.53-3.09-.97-4.97-1.33-1.88-.36-4.02-.54-6.41-.54-4.41,0-8.46.76-12.15,2.28-3.69,1.52-6.87,3.69-9.54,6.51-2.67,2.82-4.74,6.24-6.23,10.26-1.49,4.02-2.23,8.52-2.23,13.51s.73,9.71,2.2,13.74c1.47,4.04,3.5,7.45,6.1,10.23,2.6,2.79,5.67,4.92,9.2,6.41,3.54,1.49,7.38,2.23,11.51,2.23,2.6,0,4.91-.17,6.95-.51s3.9-.86,5.62-1.54c1.71-.68,3.3-1.52,4.77-2.51,1.47-.99,2.92-2.15,4.36-3.49.17-.14.33-.25.49-.33.15-.09.33-.13.54-.13Z"/>
    <path class="cls-1" d="M1610.62,199.24h-5.28v-34.77h-45.44v34.77h-5.28v-72.57h5.28v33.85h45.44v-33.85h5.28v72.57Z"/>
  </g>
  <path class="cls-2" d="M90.88,108.12h515.85v113.76H90.88c-31.39,0-56.88-25.49-56.88-56.88h0c0-31.39,25.49-56.88,56.88-56.88Z"/>
  <path class="cls-2" d="M1788.15,108.12h515.85v113.76h-515.85c-31.39,0-56.88-25.49-56.88-56.88h0c0-31.39,25.49-56.88,56.88-56.88Z" transform="translate(4035.27 330) rotate(-180)"/>
  <path class="cls-1" d="M123.51,170.56c1.18-4.45,1.44-9.04.78-13.63s-2.2-8.92-4.57-12.87c-2.29-3.81-5.27-7.1-8.84-9.77-3.57-2.68-7.56-4.61-11.86-5.74-4.45-1.18-9.04-1.44-13.63-.78-4.59.66-8.92,2.2-12.87,4.57-3.81,2.29-7.1,5.27-9.77,8.84-2.68,3.57-4.61,7.56-5.74,11.86-1.18,4.45-1.44,9.04-.78,13.63s2.2,8.92,4.57,12.87c2.29,3.81,5.27,7.1,8.84,9.77s7.56,4.61,11.86,5.74c4.45,1.18,9.04,1.44,13.63.78s8.92-2.2,12.87-4.57c2.02-1.21,3.88-2.62,5.6-4.21l25.44,19.07c2.83,2.12,7.05,1.66,9.07-1.25.93-1.34,1.26-2.92,1.05-4.43s-1.05-3.06-2.42-4.09l-25.68-19.25c1.04-2.09,1.87-4.28,2.47-6.55ZM79.41,185.58c-10.04-4.72-15.91-14.62-15.23-25.7.19-3.09.97-6.12,2.28-8.92,4.72-10.04,14.62-15.91,25.7-15.23,3.09.19,6.12.97,8.92,2.28,10.04,4.72,15.91,14.62,15.23,25.7-.19,3.09-.97,6.12-2.28,8.92-4.72,10.04-14.62,15.91-25.7,15.23-3.09-.19-6.12-.97-8.92-2.28Z"/>
</svg>