<?xml version="1.0" encoding="UTF-8"?>
<svg id="Layer_1" data-name="Layer 1" xmlns="http://www.w3.org/2000/svg" viewBox="0 0 382 377">
  <defs>
    <style>
      .cls-1, .cls-2, .cls-3 {
        stroke-width: 0px;
      }

      .cls-2 {
        fill: #141414;
      }

      .cls-4 {
        fill: none;
        stroke: #1c1c1c;
        stroke-miterlimit: 10;
      }

      .cls-3 {
        fill: #1c1c1c;
      }
    </style>
  </defs>
  <path class="cls-3" d="M375,188.5c0,101.62-82.38,184-184,184S7,290.12,7,188.5,89.38,4.5,191,4.5s184,82.38,184,184"/>
  <path class="cls-1" d="M358.95,188.5c0,92.76-75.19,167.95-167.95,167.95S23.04,281.26,23.04,188.5,98.24,20.54,191,20.54s167.95,75.2,167.95,167.95"/>
  <path class="cls-2" d="M341.3,188.5c0,83.01-67.29,150.3-150.3,150.3S40.7,271.51,40.7,188.5,107.99,38.2,191,38.2s150.3,67.29,150.3,150.3"/>
  <path class="cls-4" d="M329,188.5c0,76.22-61.78,138-138,138S53,264.72,53,188.5,114.78,50.5,191,50.5s138,61.79,138,138"/>
  <path class="cls-1" d="M246.29,188.5c0,30.54-24.76,55.29-55.29,55.29s-55.29-24.76-55.29-55.29,24.75-55.29,55.29-55.29,55.29,24.75,55.29,55.29"/>
  <path class="cls-3" d="M151.02,194.6c0-23.95,19.42-43.38,43.37-43.38,9.81,0,18.82,3.3,26.09,8.79-7.64-8.87-18.92-14.51-31.54-14.51-23,0-41.64,18.64-41.64,41.64,0,7.97,2.28,15.4,6.17,21.74-1.56-4.48-2.45-9.27-2.45-14.28"/>
</svg>